<?xml version="1.0" encoding="iso-8859-1"?>
<!-- Uploaded to: SVG Repo, www.svgrepo.com, Generator: SVG Repo Mixer Tools -->
<svg fill="#ff6fb1" height="800px" width="800px" version="1.1" id="Layer_1" xmlns="http://www.w3.org/2000/svg" xmlns:xlink="http://www.w3.org/1999/xlink" 
	 viewBox="0 0 511.999 511.999" xml:space="preserve">
<g>
	<g>
		<g>
			<path d="M255.999,0c-70.54,0-127.929,57.389-127.929,127.929c0,34.999,14.331,85.584,35.661,125.873
				c17.367,32.803,37.391,55.962,58.385,68.064l-9.832,40.221c-0.746,3.052-0.049,6.278,1.891,8.749
				c1.94,2.472,4.907,3.915,8.05,3.915h25.779c-1.391,7.793-4.4,12.867-7.959,18.835c-5.474,9.177-11.679,19.578-11.679,39.555
				c0,19.977,6.205,30.378,11.679,39.556c4.91,8.232,8.789,14.733,8.789,29.069c0,5.652,4.582,10.234,10.234,10.234
				s10.234-4.582,10.234-10.234c0-19.976-6.205-30.379-11.679-39.555c-4.91-8.232-8.789-14.733-8.789-29.07
				c0-14.335,3.879-20.837,8.789-29.069c4.453-7.465,9.389-15.741,11.076-29.321h21.072c3.142,0,6.11-1.443,8.05-3.915
				c1.94-2.472,2.637-5.697,1.891-8.749l-9.832-40.221c20.994-12.103,41.018-35.262,58.385-68.064
				c21.33-40.289,35.661-90.873,35.661-125.873C383.928,57.389,326.539,0,255.999,0z M235.264,354.283l6-24.548
				c4.895,1.216,9.813,1.846,14.735,1.846c4.923,0,9.84-0.63,14.735-1.846l6,24.548H235.264z M330.178,244.224
				c-22.505,42.508-49.542,66.888-74.177,66.888c-24.635,0-51.673-24.38-74.177-66.888c-19.908-37.602-33.283-84.338-33.283-116.296
				c0-59.254,48.207-107.46,107.46-107.46c59.254,0,107.46,48.207,107.46,107.46C363.46,159.888,350.084,206.624,330.178,244.224z"
				/>
			<path d="M308.405,58.531c-4.507-3.41-10.925-2.522-14.337,1.984c-3.411,4.507-2.522,10.926,1.984,14.337
				c16.822,12.729,26.469,32.075,26.469,53.076c0,20.837-8.926,60.123-28.525,97.141c-2.645,4.995-0.739,11.189,4.256,13.834
				c1.527,0.809,3.165,1.191,4.78,1.191c3.669,0,7.217-1.979,9.053-5.448c21.233-40.105,30.904-83.433,30.904-106.719
				C342.991,100.46,330.385,75.165,308.405,58.531z"/>
			<path d="M258.387,40.97c-0.793-0.023-1.589-0.033-2.388-0.033c-5.652,0-10.234,4.582-10.234,10.234s4.582,10.234,10.234,10.234
				c0.613,0,2.021,0.029,2.115,0.029c5.523,0,10.075-4.402,10.225-9.957C268.493,45.827,264.037,41.122,258.387,40.97z"/>
		</g>
	</g>
</g>
</svg>